<svg width="900" height="650" xmlns="http://www.w3.org/2000/svg">

 <metadata id="metadata7">image/svg+xml</metadata>
 <g>
  <title>background</title>
  <rect fill="none" id="canvas_background" height="402" width="582" y="-1" x="-1"/>
 </g>
 <g>
  <title>Layer 1</title>
  <g transform="matrix(5.056565,0,0,5.056565,-1166.6307,-2150.6878) " id="layer1">
   <rect fill="#999999" id="rect3050" y="425.721396" x="256.029612" ry="20.679518" height="128.54576" width="128.01605"/>
   <g font-size="109.796501px" font-style="normal" font-weight="normal" text-anchor="middle" fill="#ffffff" font-family="Sans" id="text3836" transform="translate(0,0.39552608132362366) scale(1.0052013397216797,0.9948256015777588) ">
    <path fill="#4c4c4c" id="path3841" d="m319.343369,483.16526c3.25239,0.00005 5.71852,-0.71477 7.3984,-2.14446c1.67978,-1.42959 2.51969,-3.53831 2.51974,-6.32617c-0.00005,-2.752 -0.83996,-4.84285 -2.51974,-6.27255c-1.67988,-1.46532 -4.14601,-2.19801 -7.3984,-2.19808l-11.41926,0l0,16.94126l11.41926,0m0.69695,35.00836c4.14592,0.00001 7.25538,-0.87564 9.32841,-2.62697c2.10867,-1.75129 3.16303,-4.39613 3.16309,-7.93451c-0.00006,-3.46686 -1.03655,-6.05808 -3.10947,-7.77368c-2.07303,-1.75128 -5.20037,-2.62693 -9.38203,-2.62697l-12.11621,0l0,20.96213l12.11621,0m19.19294,-28.78942c4.43183,1.28672 7.86296,3.6635 10.29343,7.13034c2.43031,3.46692 3.64551,7.7201 3.64558,12.75956c-0.00007,7.72008 -2.60917,13.47438 -7.82729,17.26292c-5.21825,3.78855 -13.15276,5.68283 -23.80353,5.68283l-34.2578,0l0,-80.04208l30.98749,0c11.11541,0.00008 19.15714,1.67991 24.12521,5.03949c5.00367,3.35973 7.50554,8.73875 7.50562,16.13708c-0.00008,3.89583 -0.91147,7.21975 -2.73419,9.97175c-1.82286,2.71637 -4.4677,4.73574 -7.93452,6.05811"/>
   </g>
  </g>
 </g>
</svg>