<svg width="342" height="480" xmlns="http://www.w3.org/2000/svg">

 <g>
  <title>background</title>
  <rect fill="none" id="canvas_background" height="402" width="582" y="-1" x="-1"/>
 </g>
 <g>
  <title>Layer 1</title>
  <g id="#000000ff">
   <path id="svg_1" d="m68.37,0.96c21,-0.26 42,-0.08 63,-0.09c0.05,6.57 0.15,13.14 -0.09,19.71c-14.55,-0.1 -29.09,0 -43.63,0.09c-0.1,9.54 -0.29,19.08 -0.2,28.62c14.6,0.09 29.21,0.23 43.81,0.17c0.17,5.4 0.11,10.82 -0.05,16.23c-20.94,-0.14 -41.88,-0.08 -62.82,-0.06c0.05,-21.56 0.09,-43.11 -0.02,-64.67z" fill="#BBBBBB"/>
   <path id="svg_2" d="m138.86,0.89c21.26,-0.04 42.52,-0.17 63.79,0.07c-0.08,6.21 -0.02,12.41 -0.02,18.62c-15.47,-0.05 -30.95,0.02 -46.42,0.2c0.02,2.44 0.02,4.88 0,7.32c15.45,0.25 30.89,0.28 46.33,0.37c0.06,12.73 0.03,25.45 0.11,38.17c-21.27,-0.04 -42.54,-0.02 -63.81,0.08c-0.11,-5.14 -0.12,-10.27 0.03,-15.41c14.74,0.04 29.49,0.06 44.23,-0.06c0.09,-3.31 0.13,-6.63 0.12,-9.94c-14.81,0 -29.63,0.05 -44.44,-0.05c0,-13.12 0,-26.25 0.08,-39.37z" fill="#BBBBBB"/>
   <path id="svg_3" d="m209.77,1c21.22,0 42.45,0 63.67,0c0.09,6.24 0.18,12.48 -0.02,18.71c-15.54,-0.01 -31.08,0.08 -46.62,0.11c0.04,2.55 0.1,5.1 0.23,7.65c15.45,-0.07 30.9,0.12 46.34,0.28c0.14,12.67 0.24,25.34 0.06,38.01c-21.27,-0.06 -42.54,-0.06 -63.81,0.04c-0.13,-5.12 -0.17,-10.26 0.05,-15.38c14.71,0.11 29.43,0.09 44.15,-0.05c0.04,-3.32 0.11,-6.64 0.08,-9.95c-14.77,0.14 -29.55,0.06 -44.33,0.01c0,-13.14 0.1,-26.29 0.2,-39.43z" fill="#BBBBBB"/>
  </g>
  <g id="#0170baff">
   <path id="svg_4" d="m0,92.46c113.92,-0.01 227.83,-0.02 341.75,0c-6.27,70.85 -12.44,141.7 -18.97,212.53c-3.88,45.27 -7.88,90.54 -12.1,135.78c-24.31,6.44 -48.38,13.78 -72.68,20.25c-22.32,6.55 -44.82,12.48 -67.15,18.98l-0.66,0c-21.25,-6.32 -42.71,-11.88 -63.96,-18.2c-25.08,-6.76 -49.94,-14.3 -75.03,-21.03c-3.27,-33.91 -6.22,-67.84 -9.13,-101.77c-5.49,-62.69 -11.46,-125.34 -16.74,-188.04c-1.83,-18.87 -3.14,-37.8 -5.33,-56.63l0,-1.87m171.41,27.95c-0.24,13.61 0.18,27.23 -0.24,40.83c-39.08,-0.14 -78.17,-0.03 -117.25,0.01c0.67,13.21 2.44,26.33 4.26,39.43c36.36,1.35 72.77,-0.05 109.13,1.04c-31.81,14.27 -64.01,27.71 -95.96,41.68c-2.74,1.22 -5.67,2.14 -8.12,3.92c0.27,14.51 2.61,28.94 3.64,43.42c19.38,-0.07 38.75,-0.38 58.13,-0.41c15.53,-0.08 31.07,0.23 46.6,-0.11c-0.74,23.86 0.23,47.75 -0.5,71.61c-10.45,-1.55 -20.77,-3.88 -31.18,-5.73c-8.21,-1.79 -16.62,-2.72 -24.71,-5.07c-1.15,-11.45 -1.95,-22.94 -2.97,-34.4c-2.34,-0.72 -4.82,-0.65 -7.24,-0.69c-11.74,0.07 -23.49,-0.04 -35.24,0.14c1.15,22.03 3.13,44.03 6.5,65.85c11.58,3.02 23.18,5.98 34.74,9.13c17.71,4.82 35.64,8.83 53.38,13.57c2.11,0.45 4.24,1.23 6.43,1.05c1.18,14.49 0.27,29.07 0.49,43.6c4.09,-0.66 8.11,-1.67 12.06,-2.89c33.58,-9.12 67.12,-18.41 100.68,-27.62c1.67,-13.2 2.45,-26.49 3.77,-39.72c3.49,-40.22 7.01,-80.44 10.67,-120.65c4.29,-46 8,-92.05 12.32,-138.05c-46.47,0.04 -92.93,-0.09 -139.39,0.06z" fill="#999999"/>
  </g>
  <g id="#29a9dfff">
   <path id="svg_5" d="m171.41,120.41c46.46,-0.15 92.92,-0.02 139.39,-0.06c-4.32,46 -8.03,92.05 -12.32,138.05c-3.66,40.21 -7.18,80.43 -10.67,120.65c-1.32,13.23 -2.1,26.52 -3.77,39.72c-33.56,9.21 -67.1,18.5 -100.68,27.62c-3.95,1.22 -7.97,2.23 -12.06,2.89c-0.22,-14.53 0.69,-29.11 -0.49,-43.6c0.3,-0.06 0.91,-0.18 1.21,-0.24c31.23,-7.84 62.25,-16.47 93.41,-24.59c3.94,-44.2 8.31,-88.38 11.08,-132.67c-26.5,0.14 -53.01,0.06 -79.51,0.17c-3.86,0.02 -7.72,0 -11.56,-0.28c14.26,-7.34 29.26,-13.16 43.9,-19.71c14.05,-6.37 28.27,-12.34 42.37,-18.59c2.72,-1.25 5.62,-2.29 8.01,-4.15c0.94,-3.45 0.89,-7.06 1.26,-10.59c0.81,-11.2 2.25,-22.34 2.79,-33.55c-37.53,-0.3 -75.06,-0.04 -112.6,-0.24c0.42,-13.6 0,-27.22 0.24,-40.83z" fill="#BBBBBB"/>
   <path id="svg_6" d="m171.6,290.22c18.12,-0.31 36.25,0.18 54.38,0.06c-1.01,18.53 -2.55,37.03 -3.51,55.56c-11.11,3.63 -22.39,6.7 -33.59,10.06c-5.97,1.82 -12.1,3.26 -17.78,5.93c0.73,-23.86 -0.24,-47.75 0.5,-71.61z" fill="#BBBBBB"/>
  </g>
 </g>
</svg>