<svg width="512" height="512" xmlns="http://www.w3.org/2000/svg">

 <g>
  <title>background</title>
  <rect fill="none" id="canvas_background" height="402" width="582" y="-1" x="-1"/>
 </g>
 <g>
  <title>Layer 1</title>
  <g id="svg_1">
   <g id="svg_2">
    <path id="svg_3" d="m120.387,20.312l21.298,0l0,21.045l19.485,0l0,-21.045l21.303,0l0,63.727l-21.303,0l0,-21.339l-19.485,0l0,21.338l-21.298,0l0,-63.726z" fill="#999999"/>
    <path id="svg_4" d="m210.482,41.444l-18.754,0l0,-21.132l58.812,0l0,21.133l-18.759,0l0,42.594l-21.3,0l0,-42.595l0.001,0z" fill="#999999"/>
    <path id="svg_5" d="m259.879,20.312l22.21,0l13.661,22.392l13.648,-22.392l22.219,0l0,63.727l-21.212,0l0,-31.586l-14.655,22.658l-0.366,0l-14.665,-22.658l0,31.585l-20.84,0l0,-63.726z" fill="#999999"/>
    <path id="svg_6" d="m342.219,20.312l21.308,0l0,42.664l29.955,0l0,21.062l-51.263,0l0,-63.726z" fill="#999999"/>
   </g>
   <path id="svg_7" d="m201.662,266.676l55.338,0l0,-42.92l-59.169,0l3.831,42.92zm-111.976,-154.694l30.47,341.74l136.762,37.966l136.891,-37.948l30.507,-341.758l-334.63,0zm278.008,319.999l-110.694,30.687l0,-43.494l-0.067,0.02l-85.858,-23.835l-6.004,-67.298l42.075,0l3.116,34.914l46.68,12.607l0.059,-0.019l0,-66.973l-93.669,0l-11.306,-126.749l104.974,0l0,-41.914l136.766,0l-26.072,292.054z" fill="#999999"/>
   <path id="svg_8" d="m308.592,308.59l-51.592,0l0,66.974l46.728,-12.613l4.864,-54.361zm-51.592,-168.663l0,41.914l104.975,0l-3.754,41.915l-101.221,0l0,42.92l97.406,0l-11.499,128.683l-85.907,23.815l0,43.494l110.694,-30.687l26.071,-292.055l-136.765,0l0,0.001z" fill="#999999" opacity="0.8"/>
   <g id="svg_9" opacity="0.2">
    <polygon id="svg_10" points="257,181.84100341796875 152.02499389648438,181.84100341796875 163.33099365234375,308.5899963378906 257,308.5899963378906 257,266.6759948730469 201.66200256347656,266.6759948730469 197.83099365234375,223.75599670410156 257,223.75599670410156 " fill="#999999"/>
    <polygon id="svg_11" points="257,375.56298828125 256.9409942626953,375.5820007324219 210.26199340820312,362.9750061035156 207.14599609375,328.0610046386719 165.07000732421875,328.0610046386719 171.07400512695312,395.3580017089844 256.93299865722656,419.1929931640625 257,419.17401123046875 " fill="#999999"/>
   </g>
  </g>
 </g>
</svg>