<?xml version="1.0" standalone="no"?>
<!DOCTYPE svg PUBLIC "-//W3C//DTD SVG 20010904//EN"
 "http://www.w3.org/TR/2001/REC-SVG-20010904/DTD/svg10.dtd">
<svg version="1.0" xmlns="http://www.w3.org/2000/svg"
 width="685.000000pt" height="672.000000pt" viewBox="0 0 685.000000 672.000000"
 preserveAspectRatio="xMidYMid meet">

<g transform="translate(0.000000,672.000000) scale(0.100000,-0.100000)"
fill="#000000" stroke="none">
<path d="M1344 5230 c0 -311 1 -555 3 -542 4 20 8 22 36 16 18 -3 34 -10 35
-15 2 -5 10 -9 18 -9 8 0 14 -8 15 -17 0 -10 3 -13 5 -6 5 11 125 -43 132 -60
2 -4 8 -4 14 -1 6 4 13 3 17 -2 3 -5 29 -20 56 -34 28 -14 53 -29 57 -35 4 -5
8 -7 8 -3 0 4 29 -8 65 -27 36 -19 72 -35 80 -35 8 0 15 -4 15 -8 0 -5 16 -14
35 -22 19 -8 35 -17 35 -22 0 -4 7 -8 15 -8 8 0 15 -5 15 -11 0 -5 4 -8 9 -5
4 3 84 -32 176 -79 133 -66 172 -82 187 -74 10 5 18 6 18 2 0 -4 4 -3 8 3 10
15 732 376 733 367 1 -5 0 -18 0 -30 -1 -11 3 -24 8 -28 7 -4 11 8 11 34 0 30
5 43 19 51 33 17 41 12 35 -20 -4 -19 -2 -30 5 -30 6 0 11 17 11 39 0 29 5 41
18 45 30 10 37 6 34 -19 -2 -14 1 -25 7 -25 6 0 11 16 11 35 0 29 5 37 31 51
l32 16 -52 29 c-29 15 -62 31 -74 35 -12 4 -39 17 -62 29 -31 18 -41 30 -43
54 -4 37 -19 41 -24 6 -3 -24 -3 -24 -38 -8 -19 10 -37 20 -40 23 -3 3 -25 14
-50 25 -100 43 -125 61 -128 94 -4 36 -22 42 -22 7 0 -19 -4 -23 -20 -19 -11
3 -20 8 -20 12 0 4 -16 13 -34 21 -28 10 -36 20 -38 43 -4 38 -28 49 -28 14 0
-20 -4 -24 -20 -20 -11 3 -20 8 -20 12 0 4 -15 13 -34 19 -29 11 -35 19 -38
45 -2 18 -7 30 -13 27 -5 -3 -9 -13 -8 -22 3 -23 6 -23 -65 12 -34 17 -66 30
-71 30 -6 0 -11 4 -11 9 0 5 -9 11 -20 14 -19 5 -20 14 -20 296 0 187 -4 291
-10 291 -6 0 -10 -103 -10 -290 0 -268 -1 -291 -17 -297 -10 -4 -20 -9 -23
-12 -3 -3 -39 -22 -80 -43 -178 -86 -202 -98 -206 -98 -2 0 -5 168 -7 373 l-2
372 -3 -377 -2 -378 -60 -30 -60 -30 0 405 c0 263 -3 405 -10 405 -7 0 -10
-143 -10 -409 l0 -409 -25 -16 c-14 -9 -25 -13 -25 -9 0 5 0 196 0 426 0 280
-3 417 -10 417 -7 0 -10 -141 -10 -429 l0 -430 -55 -25 c-31 -14 -58 -26 -61
-28 -3 -2 -5 203 -4 455 0 307 -3 457 -10 457 -7 0 -10 -153 -10 -463 l0 -464
-25 -11 -25 -12 0 475 c0 310 -3 475 -10 475 -7 0 -10 -168 -10 -485 0 -288
-4 -485 -9 -485 -5 0 -16 -3 -25 -6 -14 -6 -16 41 -16 485 0 321 -3 491 -10
491 -7 0 -10 -173 -10 -500 0 -324 -3 -500 -10 -500 -6 0 -11 179 -13 503 l-2
502 -3 -512 c-1 -334 -5 -513 -12 -513 -7 0 -11 179 -12 513 l-3 512 -5 -520
c-3 -337 -9 -520 -15 -520 -6 0 -12 183 -15 520 l-5 520 -3 -527 c-1 -341 -6
-528 -12 -528 -6 0 -11 187 -13 528 l-2 527 -3 -537 c-2 -469 -4 -538 -17
-538 -13 0 -15 68 -18 533 l-2 532 -1 -565z"/>
<path d="M3495 5790 c-4 -6 -10 -8 -14 -6 -4 3 -56 -19 -116 -49 -59 -30 -113
-55 -120 -55 -7 0 -15 -4 -17 -8 -1 -5 -124 -69 -273 -142 -148 -74 -272 -137
-275 -140 -10 -10 -177 -90 -189 -90 -21 0 -11 -16 18 -27 24 -9 28 -15 25
-39 -4 -27 -4 -28 6 -6 6 14 15 21 22 18 7 -3 21 -9 31 -12 9 -4 17 -10 17
-15 0 -5 5 -8 12 -6 7 1 15 -13 19 -33 6 -32 6 -33 8 -7 1 18 6 27 14 24 6 -2
12 -17 11 -33 -1 -19 0 -22 3 -6 2 12 8 22 12 22 16 0 91 -41 91 -50 0 -5 7
-7 15 -4 12 5 15 -3 16 -32 2 -31 3 -33 6 -11 5 33 11 33 63 6 33 -17 40 -25
35 -43 -5 -18 -5 -19 5 -3 18 28 30 20 31 -20 2 -31 3 -33 6 -10 2 15 7 27 11
27 4 0 33 -12 64 -27 53 -26 58 -31 59 -63 l2 -35 4 33 c5 37 9 38 43 12 14
-11 31 -20 38 -20 7 0 13 -15 13 -37 2 -31 3 -33 6 -10 4 25 33 40 33 16 0 -5
5 -7 10 -4 6 3 23 -3 39 -14 16 -12 34 -21 40 -21 6 0 12 -17 12 -37 2 -31 3
-33 6 -10 6 38 23 34 24 -5 1 -30 2 -30 8 -9 7 24 31 42 31 23 0 -6 8 -12 17
-14 13 -2 17 -13 17 -43 -1 -33 0 -34 3 -7 3 19 10 32 19 32 11 0 14 -15 14
-61 0 -79 24 -78 28 2 2 46 6 56 27 66 23 10 25 9 25 -13 0 -13 5 -24 11 -24
7 0 9 11 6 29 -5 23 -2 30 19 40 33 15 32 15 37 -16 3 -23 4 -22 6 8 1 35 6
40 49 49 4 1 10 -9 14 -22 5 -20 6 -19 7 8 1 23 8 34 26 42 14 7 28 12 30 12
2 0 7 -25 11 -56 5 -43 3 -58 -7 -65 -25 -16 -41 -10 -34 11 5 14 2 20 -9 20
-11 0 -16 -9 -16 -30 0 -33 -27 -54 -56 -43 -11 4 -15 3 -10 -5 3 -6 2 -13 -4
-17 -6 -4 -10 5 -10 19 0 14 -4 26 -9 26 -5 0 -10 -25 -10 -55 0 -30 5 -55 10
-55 5 0 9 9 9 20 0 34 20 22 21 -12 1 -28 2 -30 7 -10 4 13 9 23 12 22 41 -7
50 -14 51 -44 1 -24 3 -26 6 -8 6 33 28 21 26 -14 -1 -20 0 -22 4 -6 7 35 33
27 34 -10 2 -32 2 -32 6 -5 3 17 9 26 16 23 7 -3 20 -9 30 -12 9 -4 17 -12 17
-20 0 -8 6 -11 15 -8 11 5 15 -2 16 -27 1 -29 2 -30 7 -11 10 33 28 27 24 -8
-2 -17 2 -30 7 -30 6 0 11 11 11 25 0 37 20 30 21 -7 1 -24 3 -27 6 -10 4 21
33 32 33 12 0 -5 7 -10 15 -10 10 0 16 -11 16 -32 2 -32 2 -32 6 -5 6 40 28
28 26 -14 -2 -28 -1 -30 5 -10 7 24 32 42 32 23 0 -5 8 -12 19 -15 13 -3 18
-12 16 -28 -1 -13 0 -16 2 -6 8 31 33 20 34 -15 2 -31 2 -31 6 -5 6 40 23 33
24 -10 2 -31 3 -33 6 -10 4 25 33 40 33 17 0 -5 7 -10 15 -10 10 0 15 -11 16
-32 1 -22 3 -26 6 -13 7 30 21 41 28 22 4 -9 13 -13 21 -10 10 4 14 -5 15 -33
2 -31 3 -33 6 -11 4 25 33 40 33 17 0 -5 7 -10 15 -10 10 0 16 -11 16 -32 2
-32 2 -32 6 -5 6 37 28 29 27 -9 -1 -19 0 -22 3 -6 7 38 33 27 34 -15 2 -31 3
-33 6 -10 2 15 11 27 18 27 10 0 13 -9 11 -27 -2 -16 -1 -20 1 -10 8 31 33 20
34 -15 2 -31 2 -31 6 -5 6 40 23 33 24 -10 2 -31 3 -33 6 -10 7 44 33 34 33
-13 0 -22 5 -40 10 -40 6 0 10 17 10 38 l1 37 174 88 175 87 0 -35 c0 -23 4
-33 13 -30 6 3 12 21 12 41 0 35 5 40 77 75 9 5 48 24 86 44 82 41 88 42 87
13 0 -41 20 -30 23 12 2 22 7 40 12 40 4 0 15 2 23 5 10 5 13 -1 9 -25 -3 -23
0 -30 12 -30 12 0 16 10 16 38 0 37 1 38 90 84 l90 46 0 -35 c0 -49 25 -37 26
12 0 30 5 40 22 46 20 7 22 5 22 -21 0 -21 5 -30 16 -30 11 0 14 5 10 16 -3 9
-6 247 -6 530 0 336 -3 514 -10 514 -7 0 -10 -168 -10 -485 0 -283 -4 -485 -9
-485 -10 0 -93 42 -101 51 -3 3 -11 8 -18 10 -10 3 -13 96 -12 457 0 397 -1
452 -15 452 -13 0 -15 -56 -17 -444 l-3 -445 -35 17 c-19 9 -36 20 -38 24 -2
4 -8 8 -14 8 -11 0 -80 31 -88 40 -3 3 -18 10 -35 15 l-30 10 -3 388 c-2 333
-4 387 -17 387 -13 0 -15 -52 -17 -375 l-3 -374 -262 130 -263 131 0 244 c0
156 -4 244 -10 244 -6 0 -10 -88 -10 -244 l0 -244 -121 -61 c-66 -34 -123 -61
-125 -61 -2 0 -4 9 -4 20 0 11 -7 20 -15 20 -10 0 -15 -10 -15 -30 0 -28 -7
-33 -120 -90 -66 -33 -122 -60 -125 -60 -3 0 -5 11 -5 25 0 14 -4 25 -10 25
-5 0 -10 -15 -10 -33 0 -26 -6 -36 -25 -45 -23 -11 -25 -10 -25 13 0 14 -4 25
-10 25 -5 0 -10 16 -10 35 0 41 17 47 23 8 3 -23 4 -22 6 8 1 28 6 38 21 42
11 3 24 7 28 9 4 1 10 -10 13 -27 6 -29 7 -29 8 8 1 26 6 37 16 37 8 0 15 5
15 10 0 23 29 8 33 -17 3 -23 4 -22 6 8 1 35 6 40 49 49 4 1 10 -9 14 -22 5
-20 6 -18 7 10 1 37 17 43 24 10 3 -18 5 -16 6 7 1 25 8 33 41 48 52 22 54 22
62 -5 6 -18 7 -17 4 7 -4 29 -1 32 60 60 35 16 64 32 64 35 -1 3 -30 19 -66
35 l-66 30 2 178 c1 156 -1 177 -15 177 -14 0 -16 -19 -13 -170 2 -94 2 -170
0 -170 -1 0 -27 12 -57 28 l-54 27 -1 143 c0 122 -2 142 -16 142 -14 0 -15
-17 -12 -135 2 -74 1 -134 -2 -133 -3 2 -29 14 -58 27 l-52 25 0 108 c0 65 -4
108 -10 108 -6 0 -10 -40 -10 -100 0 -55 -2 -100 -5 -100 -6 0 -139 64 -145
70 -7 7 -50 28 -82 40 -24 8 -28 15 -28 50 0 22 -4 40 -10 40 -5 0 -10 -15
-10 -33 l0 -34 -54 26 -55 26 0 53 c-1 40 -4 52 -17 52 -12 0 -15 -9 -13 -40
2 -21 0 -42 -4 -46 -4 -4 -7 -3 -7 2 0 5 -22 18 -50 29 -34 13 -50 25 -50 37
0 20 -15 24 -25 8z m470 -789 c-3 -11 -1 -22 5 -26 13 -8 13 -65 1 -65 -5 0
-12 10 -14 23 -3 16 -5 13 -6 -10 -1 -34 -21 -47 -21 -15 0 10 -4 22 -9 28 -5
5 -11 18 -14 29 -3 11 -3 -5 0 -35 5 -53 4 -56 -21 -68 -24 -11 -26 -10 -26
13 0 14 -4 25 -10 25 -5 0 -10 -13 -10 -30 0 -19 -7 -33 -19 -40 -28 -15 -33
-13 -26 10 4 13 1 22 -9 26 -10 4 -16 18 -16 38 0 23 6 34 25 43 27 12 41 2
31 -22 -3 -8 -1 -15 4 -15 6 0 10 13 10 28 0 23 8 32 53 55 63 32 81 34 72 8z"/>
<path d="M4281 5154 c0 -11 3 -14 6 -6 3 7 2 16 -1 19 -3 4 -6 -2 -5 -13z"/>
<path d="M2882 5050 c0 -14 2 -19 5 -12 2 6 2 18 0 25 -3 6 -5 1 -5 -13z"/>
<path d="M3672 4650 c0 -14 2 -19 5 -12 2 6 2 18 0 25 -3 6 -5 1 -5 -13z"/>
<path d="M1362 4608 c-2 -38 -10 -46 -27 -29 -6 5 -20 12 -32 15 -19 6 -22 4
-21 -21 0 -15 1 -255 0 -533 0 -278 0 -516 1 -528 1 -17 13 -30 39 -43 31 -16
38 -25 39 -52 2 -31 2 -31 6 -4 3 16 7 27 11 25 122 -57 122 -57 123 -90 2
-31 2 -32 6 -5 6 37 28 29 27 -9 -1 -19 0 -22 3 -6 7 38 33 27 35 -15 1 -36 1
-36 5 -7 4 32 4 32 34 17 16 -8 29 -18 29 -23 0 -4 6 -7 13 -6 6 0 45 -15 84
-34 69 -33 73 -37 74 -70 2 -30 3 -31 6 -7 6 36 23 35 23 -3 0 -16 4 -30 9
-30 5 0 7 8 4 19 -5 20 15 40 26 24 3 -5 21 -16 39 -24 17 -8 32 -17 32 -21 0
-5 7 -8 15 -8 8 0 32 -9 53 -20 30 -16 39 -26 37 -43 -1 -12 0 -14 2 -4 5 18
33 24 33 7 0 -5 5 -9 12 -7 7 1 15 -13 19 -33 6 -31 7 -32 8 -7 1 31 1 31 36
15 18 -8 25 -19 26 -42 1 -24 3 -26 6 -8 4 22 33 32 33 11 0 -5 4 -8 9 -4 5 3
12 1 16 -5 3 -5 13 -10 21 -10 12 0 14 76 14 555 0 346 -4 556 -10 560 -6 3
-11 25 -11 48 -2 41 -2 41 -8 9 -8 -41 -26 -38 -27 5 -1 46 -14 54 -14 10 0
-52 -20 -46 -22 6 -1 36 -2 38 -5 10 -5 -37 -3 -36 -37 -23 -22 8 -26 16 -28
52 l-1 43 -4 -37 c-6 -53 -23 -47 -23 8 0 27 -4 43 -10 39 -5 -3 -10 -19 -10
-36 0 -46 -20 -34 -22 14 -1 36 -2 38 -5 10 -3 -20 -10 -33 -19 -33 -8 0 -14
5 -14 10 0 6 -6 9 -12 8 -8 -2 -15 14 -19 42 -6 45 -6 45 -7 8 -3 -52 -22 -48
-23 5 -1 37 -2 38 -8 13 -10 -48 -31 -44 -33 6 -1 36 -2 38 -5 11 -6 -47 -23
-40 -24 10 -2 40 -2 41 -8 9 -8 -44 -25 -41 -32 5 -6 38 -6 38 -8 6 -2 -48
-21 -40 -23 10 -1 36 -2 38 -5 10 -4 -33 -33 -48 -33 -18 0 9 -6 12 -15 9 -12
-5 -15 3 -17 37 l-1 44 -4 -38 c-6 -54 -28 -43 -24 12 2 29 -1 41 -8 37 -6 -4
-11 -20 -11 -37 0 -46 -20 -34 -22 14 -1 36 -2 38 -5 10 -3 -19 -10 -33 -18
-33 -10 0 -12 11 -8 40 4 27 2 40 -6 40 -7 0 -10 -10 -7 -27 7 -37 0 -44 -31
-28 -22 12 -27 21 -27 47 1 27 0 28 -3 6 -7 -46 -33 -35 -35 15 -1 37 -2 38
-5 9 -6 -47 -28 -35 -26 14 1 29 0 32 -4 9 -6 -38 -20 -54 -28 -32 -4 9 -13
13 -21 10 -11 -4 -14 5 -16 38 -1 37 -2 39 -5 12 -3 -22 -10 -33 -20 -33 -12
0 -15 8 -10 40 3 22 1 40 -4 40 -5 0 -9 -13 -9 -30 0 -46 -18 -36 -23 13 l-4
42 -1 -37z"/>
<path d="M1482 4620 c0 -14 2 -19 5 -12 2 6 2 18 0 25 -3 6 -5 1 -5 -13z"/>
<path d="M3981 4494 c0 -11 3 -14 6 -6 3 7 2 16 -1 19 -3 4 -6 -2 -5 -13z"/>
<path d="M1862 4430 c0 -14 2 -19 5 -12 2 6 2 18 0 25 -3 6 -5 1 -5 -13z"/>
<path d="M4290 4329 c0 -5 5 -7 10 -4 6 3 10 8 10 11 0 2 -4 4 -10 4 -5 0 -10
-5 -10 -11z"/>
<path d="M3470 3421 c0 -30 -4 -40 -20 -44 -16 -4 -20 0 -20 19 0 15 -5 22
-13 18 -7 -2 -13 -16 -12 -30 0 -20 -9 -31 -40 -48 -69 -39 -75 -39 -68 -6 4
23 2 30 -11 30 -12 0 -16 -10 -16 -37 0 -36 -3 -40 -52 -63 -29 -14 -56 -27
-60 -28 -5 -2 -6 8 -2 22 5 20 2 26 -10 26 -12 0 -16 -10 -16 -35 0 -19 -4
-35 -9 -35 -5 0 -17 -3 -26 -7 -14 -5 -16 -2 -10 15 5 16 2 22 -9 22 -11 0
-16 -9 -16 -30 0 -19 -7 -33 -20 -40 -18 -9 -20 -8 -20 15 0 36 -24 27 -28
-11 -3 -24 -13 -34 -58 -56 l-54 -27 0 25 c0 16 -5 24 -12 21 -7 -2 -13 -16
-13 -30 0 -21 -9 -31 -37 -47 -49 -26 -52 -25 -45 10 4 16 2 32 -3 35 -12 7
-24 -39 -17 -60 4 -8 2 -17 -3 -20 -6 -4 -10 9 -10 29 0 20 -4 36 -10 36 -5 0
-10 -18 -10 -40 0 -48 -17 -54 -23 -7 -3 28 -4 26 -5 -10 -2 -48 -22 -60 -22
-13 0 17 -4 30 -10 30 -5 0 -10 -18 -10 -41 0 -26 -4 -38 -11 -34 -5 4 -9 17
-8 28 2 35 -1 43 -10 27 -6 -8 -7 -26 -4 -41 3 -15 0 -30 -6 -33 -7 -5 -11 2
-11 18 0 14 -4 26 -10 26 -5 0 -10 -13 -10 -30 0 -16 -5 -30 -11 -30 -7 0 -9
11 -5 30 3 17 1 30 -4 30 -6 0 -10 -18 -10 -40 0 -22 -4 -40 -10 -40 -5 0 -10
9 -10 20 0 11 -4 20 -8 20 -5 0 -6 -14 -4 -31 4 -24 1 -30 -9 -27 -8 3 -14 17
-14 31 1 15 -3 27 -7 27 -4 0 -8 -16 -8 -35 0 -33 3 -36 78 -72 42 -21 79 -41
80 -45 2 -5 12 -8 22 -8 10 0 20 -3 22 -7 2 -5 30 -21 63 -37 33 -16 79 -38
103 -50 l42 -21 0 -72 c0 -66 -1 -71 -20 -66 -16 4 -20 14 -20 49 0 32 -4 44
-15 44 -10 0 -15 -10 -15 -30 0 -16 -3 -30 -7 -30 -4 0 -60 26 -124 58 l-118
57 -3 39 c-4 48 -28 62 -28 17 0 -37 -1 -37 -62 -8 -47 22 -48 23 -48 68 0 32
-5 49 -15 53 -10 4 -15 -1 -15 -14 0 -11 -3 -20 -7 -20 -30 0 -33 -62 -33
-596 0 -407 -3 -543 -12 -546 -22 -8 3 -28 35 -29 20 0 134 -52 311 -142 l279
-142 -2 -117 c-2 -103 0 -118 14 -118 14 0 16 14 13 110 -2 61 1 110 5 110 4
0 97 -45 206 -100 109 -55 201 -100 205 -100 3 0 6 252 6 560 l0 560 -25 6
c-14 3 -25 10 -25 15 0 5 -5 9 -11 9 -26 0 -239 113 -239 127 0 9 -6 12 -17 9
-10 -3 -55 13 -102 37 l-84 42 -1 73 c-1 39 0 72 2 72 1 0 51 -25 111 -55 60
-30 114 -55 120 -55 6 0 11 -3 11 -8 0 -4 15 -13 33 -21 66 -28 102 -45 107
-50 9 -11 115 -61 127 -61 7 0 13 -18 15 -40 4 -48 20 -57 30 -15 6 27 7 27 5
-7 -3 -31 0 -38 16 -38 15 0 18 6 15 37 -3 36 -2 38 62 70 l65 32 5 -27 c8
-43 35 -34 36 11 0 35 4 40 47 62 26 13 47 21 47 18 0 -3 7 0 15 7 8 6 40 25
72 40 l58 29 3 -30 c5 -46 32 -37 32 11 l0 39 123 60 122 60 3 -29 c5 -46 32
-39 32 9 0 38 0 38 90 84 l90 46 0 -35 c0 -21 4 -33 10 -29 6 3 10 22 10 40 0
24 6 38 19 45 28 15 31 13 31 -20 0 -16 4 -30 9 -30 5 0 9 29 9 65 0 36 -4 65
-9 65 -5 0 -9 -11 -9 -25 0 -37 -20 -30 -21 8 -1 23 -3 26 -6 10 -7 -38 -33
-29 -28 10 3 23 3 26 -3 9 -10 -33 -26 -28 -33 10 -6 32 -6 32 -8 5 -1 -18 -6
-27 -13 -24 -8 2 -12 17 -10 38 2 19 0 30 -4 26 -5 -5 -9 -16 -9 -24 0 -33
-25 -25 -26 9 -1 23 -3 26 -6 11 -7 -34 -23 -28 -24 10 -1 27 -2 29 -7 9 -10
-33 -26 -28 -33 10 -6 31 -6 31 -8 6 -2 -42 -21 -34 -22 10 -2 30 -3 32 -6 10
-4 -26 -33 -41 -33 -18 0 6 -5 9 -12 8 -7 -2 -15 12 -19 32 -6 32 -6 33 -8 7
-1 -18 -6 -27 -13 -24 -7 2 -12 16 -10 31 1 14 -2 26 -8 26 -6 0 -10 -7 -8
-16 2 -10 -3 -19 -9 -21 -9 -3 -13 7 -14 29 -1 23 -3 26 -6 11 -4 -22 -33 -33
-33 -13 0 6 -5 9 -12 8 -7 -2 -15 12 -19 32 -6 31 -7 32 -8 8 -2 -42 -21 -34
-22 10 -2 30 -3 32 -6 10 -6 -40 -33 -36 -34 5 -1 23 -3 26 -6 10 -8 -44 -62
-18 -64 30 -2 30 -2 30 -6 5 -6 -41 -23 -34 -24 10 -2 30 -3 32 -6 10 -3 -17
-11 -28 -20 -28 -11 0 -14 8 -11 30 3 17 1 30 -4 30 -4 0 -8 -12 -8 -26 0 -36
-20 -19 -21 19 -2 31 -2 31 -6 4 -6 -36 -29 -29 -25 7 1 14 -1 26 -7 26 -5 0
-8 -7 -7 -16 0 -9 -5 -19 -11 -21 -9 -3 -13 7 -14 29 -1 23 -3 26 -6 11 -7
-38 -33 -29 -28 10 3 23 3 26 -3 9 -10 -33 -26 -28 -33 10 -6 32 -6 32 -8 5
-1 -18 -6 -27 -13 -24 -7 2 -13 15 -12 28 1 13 -1 16 -3 7 -8 -32 -33 -21 -34
15 -1 23 -3 26 -6 10 -7 -34 -23 -28 -24 10 -1 27 -2 29 -7 9 -11 -36 -27 -31
-30 11 -4 49 -22 48 -22 -2z"/>
<path d="M3902 3220 c0 -14 2 -19 5 -12 2 6 2 18 0 25 -3 6 -5 1 -5 -13z"/>
<path d="M1911 3134 c0 -11 3 -14 6 -6 3 7 2 16 -1 19 -3 4 -6 -2 -5 -13z"/>
</g>
</svg>
