<svg width="776.0917500000002" height="693.6653800000001" xmlns="http://www.w3.org/2000/svg">
 <metadata id="metadata11">image/svg+xml</metadata>

 <g>
  <title>background</title>
  <rect fill="none" id="canvas_background" height="402" width="582" y="-1" x="-1"/>
 </g>
 <g>
  <title>Layer 1</title>
  <g id="g3" transform="rotate(190 390.0453796386719,338.1656188964843) matrix(2.636592220617546,0,0,-0.8463223616406569,-246.47954884051543,508.4003335901742) ">
   <path fill="#DDDDDD" clip-rule="evenodd" fill-rule="evenodd" d="m109.292344,92.622943c1.125,28.749 5.277,54.82 12.695,78.018c7.205,22.53 18.847,40.222 36.812,53.747c52.018,39.16 153.369,16.572 153.369,16.572l-4.632,-32.843l72.918,42.778l-58.597,58.775l-3.85,-27.303c0,0 -100.347,18.529 -163.905,-34.881c-37.659,-31.646 -53.293,-84.021 -51.593,-153.962c0.266,-0.247 4.728,-0.908 6.783,-0.901z" id="path5"/>
  </g>
 </g>
</svg>