<svg xmlns="http://www.w3.org/2000/svg" xmlns:xlink="http://www.w3.org/1999/xlink" width="343.9534887847158" height="354.7829496334268" version="1.1" style=""><rect id="backgroundrect" width="100%" height="100%" x="0" y="0" fill="none" stroke="none" class="" style=""/>
    <!-- Generator: Sketch 3.8.1 (29687) - http://www.bohemiancoding.com/sketch -->
    <title>ghost [#588]</title>
    <desc>Created with Sketch.</desc>
    <defs/>
    
<g class="currentLayer" style=""><title>Layer 1</title><g id="Page-1" stroke="#dadada" stroke-width="1" fill="#893fff" fill-rule="evenodd" class="selected" fill-opacity="1" stroke-opacity="1">
        <g id="Dribbble-Light-Preview" fill="#893fff" fill-opacity="1" stroke-width="1" stroke="#dadada" stroke-opacity="1">
            <g id="icons" fill="#893fff" fill-opacity="1" stroke-width="1" stroke="#dadada" stroke-opacity="1">
                <path d="M299.5503851684391,170.64856705178596 C299.5503851684391,99.17813433360729 241.98727727500233,39.62236927781959 171.24030906158646,39.62236927781959 C100.49334084817055,39.62236927781959 42.930232954733796,99.17813433360729 42.930232954733796,170.64856705178596 L42.930232954733796,283.3433482074056 C42.930232954733796,292.56746667271494 50.11559721671755,300.4883189898549 58.96899246809038,300.4883189898549 C67.8223877194632,300.4883189898549 75.00775198144696,293.4364223477111 75.00775198144696,284.2123038824017 C75.00775198144696,274.9714489826859 82.19311624343072,268.3709339768017 91.04651149480354,268.3709339768017 C99.89990674617637,268.3709339768017 107.08527100816012,277.5783160076741 107.08527100816012,286.8024344729835 C107.08527100816012,296.04328937269935 114.27063527014387,306.9885827535792 123.1240305215167,306.9885827535792 L139.1627900348733,306.9885827535792 C148.01618528624613,306.9885827535792 155.20154954822988,296.9122450476955 155.20154954822988,287.6713901479796 C155.20154954822988,278.44727168267025 162.38691381021363,268.3709339768017 171.24030906158646,268.3709339768017 C180.09370431295923,268.3709339768017 187.27906857494304,277.5783160076741 187.27906857494304,286.8024344729835 C187.27906857494304,296.04328937269935 194.4644328369268,306.9885827535792 203.31782808829962,306.9885827535792 L219.3565876016562,306.9885827535792 C228.20998285302898,306.9885827535792 235.39534711501278,296.04328937269935 235.39534711501278,286.8024344729835 C235.39534711501278,277.5783160076741 242.58071137699653,266.63302262679434 251.43410662836936,266.63302262679434 C260.28750187974214,266.63302262679434 267.47286614172594,274.1192297421115 267.47286614172594,283.3433482074056 C267.47286614172594,292.56746667271494 274.6582304037097,300.0538411523568 283.5116256550825,300.0538411523568 C292.3650209064553,300.0538411523568 299.5503851684391,292.56746667271494 299.5503851684391,283.3433482074056 L299.5503851684391,170.64856705178596 zM331.62790419515227,170.64856705178596 L331.62790419515227,300.0538411523568 C331.62790419515227,318.5020780829604 317.27321443069815,340.4094012791417 299.5503851684391,340.4094012791417 L287.3448891787748,340.4094012791417 C278.49149392740185,340.4094012791417 269.2852459667352,334.87817706823347 263.6396026180336,327.77623848716445 C260.7365871461161,324.1168171016068 256.3580057989698,319.18710034370326 251.43410662836936,319.18710034370326 C246.51020745776884,319.18710034370326 242.13162611062256,323.2478614266107 239.22861063870505,326.9074501765235 C233.58296729000347,334.0092213932374 224.37671932933682,340.4094012791417 215.52332407796388,340.4094012791417 L207.1510916119919,340.4094012791417 C198.29769636061894,340.4094012791417 189.0914483999523,334.87817706823347 183.44580505125072,327.77623848716445 C180.5427895793332,324.1168171016068 176.16420823218692,319.18710034370326 171.24030906158646,319.18710034370326 C166.31640989098594,319.18710034370326 161.93782854383966,323.2478614266107 159.03481307192214,326.9074501765235 C143.4291000654261,346.5086600741962 116.64437167812069,344.4699949977092 103.41239507960148,327.558999568423 C100.47730208865723,323.8326324451937 96.03456570345743,318.8363046782985 91.04651149480354,318.8363046782985 C86.05845728614965,318.8363046782985 81.61572090094985,322.9636767701824 78.6806279100056,326.6902112577669 C73.0189458017907,333.9424430199057 63.7004265245306,340.4094012791417 54.7347599565642,340.4094012791417 L42.930232954733796,340.4094012791417 C25.207403692474827,340.4094012791417 10.852713928020634,318.5020780829604 10.852713928020634,300.0538411523568 L10.852713928020634,170.64856705178596 C10.852713928020634,80.61290972642223 82.6582402693181,6.201550752257035 171.24030906158646,6.201550752257035 C259.8223778538548,6.201550752257035 331.62790419515227,80.61290972642223 331.62790419515227,170.64856705178596 L331.62790419515227,170.64856705178596 zM235.39534711501278,149.66024146952583 L235.39534711501278,183.08105999507313 C235.39534711501278,192.30517846038248 242.58071137699653,199.79138557568444 251.43410662836936,199.79138557568444 C260.28750187974214,199.79138557568444 267.47286614172594,192.30517846038248 267.47286614172594,183.08105999507313 L267.47286614172594,149.66024146952583 C267.47286614172594,140.43612300421648 260.28750187974214,132.94991588891452 251.43410662836936,132.94991588891452 C242.58071137699653,132.94991588891452 235.39534711501278,140.43612300421648 235.39534711501278,149.66024146952583 L235.39534711501278,149.66024146952583 zM107.08527100816012,149.66024146952583 L107.08527100816012,183.08105999507313 C107.08527100816012,192.30517846038248 99.89990674617637,199.79138557568444 91.04651149480354,199.79138557568444 C82.19311624343072,199.79138557568444 75.00775198144696,192.30517846038248 75.00775198144696,183.08105999507313 L75.00775198144696,149.66024146952583 C75.00775198144696,140.43612300421648 82.19311624343072,132.94991588891452 91.04651149480354,132.94991588891452 C99.89990674617637,132.94991588891452 107.08527100816012,140.43612300421648 107.08527100816012,149.66024146952583 L107.08527100816012,149.66024146952583 z" id="ghost-[#588]" fill="#893fff" fill-opacity="1" stroke-width="1" stroke="#dadada" stroke-opacity="1"/>
            </g>
        </g>
    </g></g></svg>