<?xml version="1.0" encoding="utf-8"?>
<!-- Generator: Adobe Illustrator 16.0.0, SVG Export Plug-In . SVG Version: 6.00 Build 0)  -->
<!DOCTYPE svg PUBLIC "-//W3C//DTD SVG 1.1//EN" "http://www.w3.org/Graphics/SVG/1.1/DTD/svg11.dtd">
<svg version="1.1" id="Layer_1" xmlns="http://www.w3.org/2000/svg" xmlns:xlink="http://www.w3.org/1999/xlink" x="0px" y="0px"
	 width="480px" height="200.615px" viewBox="0 0 480 200.615" enable-background="new 0 0 480 200.615" xml:space="preserve">
<g>
	<path fill="#3E475B" d="M343.519,142.648H169.86c-6.27,0-11.369-5.102-11.369-11.372V11.371c0-6.269,5.1-11.371,11.369-11.371
		h173.658c6.27,0,11.371,5.102,11.371,11.371v119.905C354.89,137.547,349.788,142.648,343.519,142.648 M169.86,6.203
		c-2.85,0-5.169,2.318-5.169,5.168v119.905c0,2.851,2.319,5.171,5.169,5.171h173.658c2.849,0,5.169-2.32,5.169-5.171V11.371
		c0-2.85-2.32-5.168-5.169-5.168H169.86z"/>
	<rect x="161.591" y="115.771" fill="#3E475B" width="190.196" height="6.203"/>
	<path fill="#3E475B" d="M292.867,167.457H220.51c-2.012,0-3.098-1.225-3.444-2.373s-0.121-2.771,1.557-3.885l9.721-6.48
		l-3.354-13.416c-0.299-1.201-0.047-2.426,0.691-3.371c0.737-0.943,1.868-1.486,3.099-1.486h55.818c1.232,0,2.363,0.543,3.1,1.486
		c0.739,0.945,0.991,2.17,0.693,3.367l-3.354,13.42l9.726,6.482c1.673,1.111,1.899,2.734,1.554,3.883
		C295.967,166.232,294.879,167.457,292.867,167.457 M229.719,161.254h53.941l-3.023-2.016c-1.55-1.031-2.35-3.094-1.897-4.906
		l2.923-11.684h-49.943l2.92,11.684c0.452,1.812-0.348,3.875-1.9,4.908L229.719,161.254z"/>
	<path fill="#466AB3" d="M223.611,34.112c0,1.138-0.93,2.068-2.067,2.068h-45.481c-1.138,0-2.067-0.93-2.067-2.068V17.574
		c0-1.139,0.93-2.068,2.067-2.068h45.481c1.138,0,2.067,0.929,2.067,2.068V34.112z"/>
	<path fill="#466AB3" d="M221.544,38.247h-45.481c-2.279,0-4.135-1.854-4.135-4.135v-16.54c0-2.279,1.855-4.134,4.135-4.134h45.481
		c2.28,0,4.136,1.854,4.136,4.134v16.54C225.68,36.393,223.824,38.247,221.544,38.247 M221.544,34.112v2.068V34.112z
		 M176.062,17.572v16.54h45.475l0.007-16.54H176.062z"/>
	<path fill="#3E475B" d="M337.315,38.247h-99.232c-2.279,0-4.135-1.854-4.135-4.135v-16.54c0-2.279,1.855-4.134,4.135-4.134h99.232
		c2.28,0,4.136,1.854,4.136,4.134v16.54C341.451,36.393,339.596,38.247,337.315,38.247 M337.315,34.112v2.068V34.112z
		 M238.083,17.572v16.54h99.227l0.006-16.54H238.083z"/>
	<path fill="#3E475B" d="M337.315,87.862H176.062c-2.279,0-4.135-1.853-4.135-4.132V50.651c0-2.28,1.855-4.135,4.135-4.135h161.253
		c2.282,0,4.136,1.855,4.136,4.135v33.079C341.451,86.009,339.598,87.862,337.315,87.862 M337.315,83.729v2.067V83.729z
		 M176.062,50.651v33.079h161.249l0.004-33.079H176.062z"/>
	<path fill="#3E475B" d="M217.41,108.536h-41.348c-2.279,0-4.135-1.854-4.135-4.134v-4.135c0-2.28,1.855-4.136,4.135-4.136h41.348
		c2.28,0,4.134,1.855,4.134,4.136v4.135C221.544,106.682,219.69,108.536,217.41,108.536 M217.41,104.402v2.066V104.402z
		 M176.062,100.268v4.135h41.341l0.007-4.135H176.062z"/>
	<path fill="#3E475B" d="M279.431,108.536h-45.482c-2.28,0-4.136-1.854-4.136-4.134v-4.135c0-2.28,1.855-4.136,4.136-4.136h45.482
		c2.279,0,4.135,1.855,4.135,4.136v4.135C283.565,106.682,281.71,108.536,279.431,108.536 M279.431,104.402v2.066V104.402z
		 M233.948,100.268v4.135h45.476l0.007-4.135H233.948z"/>
	<path fill="#3E475B" d="M337.315,108.536H295.97c-2.279,0-4.135-1.854-4.135-4.134v-4.135c0-2.28,1.855-4.136,4.135-4.136h41.346
		c2.282,0,4.136,1.855,4.136,4.136v4.135C341.451,106.682,339.598,108.536,337.315,108.536 M337.315,104.402v2.066V104.402z
		 M295.97,100.268v4.135h41.342l0.004-4.135H295.97z"/>
	<path fill="#FFFFFF" d="M360.691,141.758c0-3.648-2.984-6.633-6.633-6.633h-39.791c-3.646,0-6.632,2.984-6.632,6.633v49.738
		c0,3.648,2.986,6.631,6.632,6.631h39.791c3.648,0,6.633-2.982,6.633-6.631V141.758z"/>
	<path fill="#3E475B" d="M354.059,200.615h-39.791c-5.027,0-9.119-4.09-9.119-9.119v-49.738c0-5.029,4.092-9.119,9.119-9.119h39.791
		c5.029,0,9.119,4.09,9.119,9.119v49.738C363.178,196.525,359.088,200.615,354.059,200.615 M314.268,137.611
		c-2.284,0-4.145,1.861-4.145,4.146v49.738c0,2.285,1.86,4.145,4.145,4.145h39.791c2.285,0,4.146-1.859,4.146-4.145v-49.738
		c0-2.285-1.86-4.146-4.146-4.146H314.268z"/>
	<path fill="#3E475B" d="M330.848,188.18c0-1.832,1.484-3.314,3.316-3.314c1.83,0,3.315,1.482,3.315,3.314
		c0,1.83-1.485,3.316-3.315,3.316C332.332,191.496,330.848,190.01,330.848,188.18"/>
	<path fill="#FFDC68" d="M350.743,150.047c0,0.912-0.745,1.658-1.658,1.658h-29.844c-0.911,0-1.658-0.746-1.658-1.658v-3.316
		c0-0.91,0.747-1.658,1.658-1.658h29.844c0.913,0,1.658,0.748,1.658,1.658V150.047z"/>
	<path fill="#FFDC68" d="M349.085,153.363h-29.844c-1.828,0-3.315-1.488-3.315-3.316v-3.316c0-1.828,1.487-3.316,3.315-3.316h29.844
		c1.83,0,3.316,1.488,3.316,3.316v3.316C352.401,151.875,350.915,153.363,349.085,153.363 M349.085,150.047v1.658V150.047z
		 M319.241,146.73v3.316h29.839l0.005-3.316H319.241z"/>
	<path fill="#3E475B" d="M349.085,169.943h-29.844c-1.828,0-3.315-1.488-3.315-3.316v-6.633c0-1.828,1.487-3.314,3.315-3.314h29.844
		c1.83,0,3.316,1.486,3.316,3.314v6.633C352.401,168.455,350.915,169.943,349.085,169.943 M349.085,166.627v1.658V166.627z
		 M319.241,159.994v6.633h29.839l0.005-6.633H319.241z"/>
	<path fill="#3E475B" d="M349.085,183.207h-29.844c-1.828,0-3.315-1.488-3.315-3.316v-3.316c0-1.826,1.487-3.314,3.315-3.314h29.844
		c1.83,0,3.316,1.488,3.316,3.314v3.316C352.401,181.719,350.915,183.207,349.085,183.207 M349.085,179.891v1.658V179.891z
		 M319.241,176.574v3.316h29.839l0.005-3.316H319.241z"/>
	<path fill="#FFFFFF" d="M218.936,181.549c0,3.646-2.985,6.631-6.632,6.631h-106.11c-3.65,0-6.632-2.984-6.632-6.631v-59.688
		c0-3.647,2.981-6.633,6.632-6.633h106.11c3.646,0,6.632,2.985,6.632,6.633V181.549z"/>
	<path fill="#3E475B" d="M212.304,190.668h-106.11c-5.029,0-9.119-4.09-9.119-9.119v-59.688c0-5.029,4.09-9.119,9.119-9.119h106.11
		c5.027,0,9.119,4.09,9.119,9.119v59.688C221.423,186.578,217.331,190.668,212.304,190.668 M106.193,117.717
		c-2.287,0-4.145,1.86-4.145,4.145v59.688c0,2.283,1.857,4.145,4.145,4.145h106.11c2.283,0,4.145-1.861,4.145-4.145v-59.688
		c0-2.284-1.861-4.145-4.145-4.145H106.193z"/>
	<path fill="#3E475B" d="M227.224,200.615H91.27c-1.73,0-3.687-1.047-4.645-2.484l-4.793-7.191
		c-0.758-1.133-0.863-2.451-0.285-3.527c0.573-1.076,1.729-1.719,3.091-1.719h56.371c1.067,0,2.726,0.164,3.771,0.375l13.329,2.664
		c0.418,0.082,1.862,0.082,2.276,0l13.329-2.664c1.046-0.211,2.704-0.375,3.771-0.375h56.371c1.362,0,2.52,0.643,3.095,1.719
		c0.576,1.076,0.47,2.395-0.285,3.529l-4.794,7.186C230.909,199.568,228.956,200.615,227.224,200.615 M87.628,190.668l3.135,4.701
		c0.079,0.09,0.386,0.256,0.538,0.273l135.903-0.002c0.152-0.021,0.448-0.182,0.546-0.295l3.118-4.678h-53.384
		c-0.751,0-2.058,0.129-2.796,0.277l-13.328,2.664c-0.752,0.152-1.565,0.184-2.113,0.184s-1.358-0.031-2.113-0.184l-13.329-2.664
		c-0.736-0.148-2.043-0.277-2.796-0.277H87.628z"/>
	<path fill="#F36F57" d="M139.353,137.45c0,0.912-0.748,1.658-1.658,1.658h-26.527c-0.913,0-1.658-0.746-1.658-1.658v-9.947
		c0-0.912,0.745-1.658,1.658-1.658h26.527c0.91,0,1.658,0.746,1.658,1.658V137.45z"/>
	<path fill="#F36F57" d="M137.694,140.767h-26.527c-1.829,0-3.315-1.488-3.315-3.316v-9.947c0-1.828,1.486-3.316,3.315-3.316h26.527
		c1.828,0,3.316,1.488,3.316,3.316v9.947C141.011,139.278,139.522,140.767,137.694,140.767 M137.694,137.45v1.658V137.45z
		 M111.167,127.503v9.947h26.521l0.007-9.947H111.167z"/>
	<path fill="#3E475B" d="M207.33,179.891h-96.163c-1.829,0-3.315-1.488-3.315-3.316v-26.527c0-1.828,1.486-3.316,3.315-3.316h96.163
		c1.827,0,3.315,1.488,3.315,3.316v26.527C210.646,178.402,209.157,179.891,207.33,179.891 M207.33,176.574v1.658V176.574z
		 M111.167,150.047v26.527h96.156l0.007-26.527H111.167z"/>
	<path fill="#3E475B" d="M207.33,140.1h-56.372c-1.829,0-3.315-1.488-3.315-3.316v-9.947c0-1.828,1.486-3.316,3.315-3.316h56.372
		c1.827,0,3.315,1.488,3.315,3.316v9.947C210.646,138.611,209.157,140.1,207.33,140.1 M207.33,136.783v1.658V136.783z
		 M150.958,126.836v9.947h56.365l0.007-9.947H150.958z"/>
	<rect y="130.639" fill="#3E475B" width="99.562" height="5.803"/>
	<rect x="354.059" y="130.639" fill="#3E475B" width="125.941" height="5.803"/>
</g>
</svg>
